GRF
version=1
nRows=21
nColumns=19
inDegrees=no
endheader
time	ground_force_vx	ground_force_vy	ground_force_vz	ground_force_px	ground_force_py	ground_force_pz	ground_torque_x	ground_torque_y	ground_torque_z	1_ground_force_vx	1_ground_force_vy	1_ground_force_vz	1_ground_force_px	1_ground_force_py	1_ground_force_pz	1_ground_torque_x	1_ground_torque_y	1_ground_torque_z
      3.50000000	    -34.06518446	    294.72956546	     -2.89328096	      0.17331366	     -0.00000000	     -0.05302565	      0.00000000	      0.85243462	     -0.00000000	     45.65444603	    416.33260813	      1.92800656	     -0.24006677	      0.00000000	     -0.04552442	      0.00000000	      2.12364714	     -0.00000000
      3.50100000	    -34.02035033	    294.40941947	     -3.00865568	      0.17334744	     -0.00000000	     -0.05293160	      0.00000000	      0.86070634	     -0.00000000	     45.65874495	    416.40947298	      1.95726233	     -0.24006229	      0.00000000	     -0.04553597	      0.00000000	      2.12613573	     -0.00000000
      3.50200000	    -33.97593794	    294.09718412	     -3.12175913	      0.17338053	     -0.00000000	     -0.05283973	      0.00000000	      0.86858405	     -0.00000000	     45.66144362	    416.48010479	      1.98523180	     -0.24005784	      0.00000000	     -0.04554638	      0.00000000	      2.12843810	     -0.00000000
      3.50300000	    -33.93195251	    293.79303204	     -3.23248952	      0.17341288	     -0.00000000	     -0.05275017	      0.00000000	      0.87605973	     -0.00000000	     45.66259425	    416.54463967	      2.01197187	     -0.24005340	      0.00000000	     -0.04555572	      0.00000000	      2.13055421	     -0.00000000
      3.50400000	    -33.88840002	    293.49712945	     -3.34074846	      0.17344444	     -0.00000000	     -0.05266307	      0.00000000	      0.88312626	     -0.00000000	     45.66225162	    416.60321351	      2.03753758	     -0.24004900	      0.00000000	     -0.04556402	      0.00000000	      2.13248356	     -0.00000000
      3.50500000	    -33.84528713	    293.20963641	     -3.44644112	      0.17347515	     -0.00000000	     -0.05257857	      0.00000000	      0.88977747	     -0.00000000	     45.66047268	    416.65596090	      2.06198179	     -0.24004461	      0.00000000	     -0.04557136	      0.00000000	      2.13422512	     -0.00000000
      3.50600000	    -33.80262120	    292.93070709	     -3.54947626	      0.17350497	     -0.00000000	     -0.05249679	      0.00000000	      0.89600814	     -0.00000000	     45.65731613	    416.70301405	      2.08535497	     -0.24004025	      0.00000000	     -0.04557776	      0.00000000	      2.13577737	     -0.00000000
      3.50700000	    -33.76041023	    292.66048999	     -3.64976631	      0.17353386	     -0.00000000	     -0.05241785	      0.00000000	      0.90181399	     -0.00000000	     45.65284203	    416.74450184	      2.10770486	     -0.24003592	      0.00000000	     -0.04558328	      0.00000000	      2.13713828	     -0.00000000
      3.50800000	    -33.71866288	    292.39912807	     -3.74722744	      0.17356175	     -0.00000000	     -0.05234188	      0.00000000	      0.90719167	     -0.00000000	     45.64711134	    416.78054883	      2.12907636	     -0.24003161	      0.00000000	     -0.04558795	      0.00000000	      2.13830530	     -0.00000000
      3.50900000	    -33.67738841	    292.14675900	     -3.84177956	      0.17358862	     -0.00000000	     -0.05226897	      0.00000000	      0.91213873	     -0.00000000	     45.64018547	    416.81127441	      2.14951126	     -0.24002733	      0.00000000	     -0.04559182	      0.00000000	      2.13927540	     -0.00000000
      3.51000000	    -33.63659674	    291.90351517	     -3.93334634	      0.17361441	     -0.00000000	     -0.05219923	      0.00000000	      0.91665363	     -0.00000000	     45.63212589	    416.83679193	      2.16904814	     -0.24002308	      0.00000000	     -0.04559491	      0.00000000	      2.14004507	     -0.00000000
      3.51100000	    -33.59629845	    291.66952389	     -4.02185522	      0.17363908	     -0.00000000	     -0.05213275	      0.00000000	      0.92073566	     -0.00000000	     45.62299366	    416.85720801	      2.18772226	     -0.24001886	      0.00000000	     -0.04559725	      0.00000000	      2.14061037	     -0.00000000
      3.51200000	    -33.55650478	    291.44490741	     -4.10723736	      0.17366259	     -0.00000000	     -0.05206960	      0.00000000	      0.92438492	     -0.00000000	     45.61284901	    416.87262187	      2.20556549	     -0.24001467	      0.00000000	     -0.04559888	      0.00000000	      2.14096693	     -0.00000000
      3.51300000	    -33.51722775	    291.22978300	     -4.18942762	      0.17368490	     -0.00000000	     -0.05200987	      0.00000000	      0.92760226	     -0.00000000	     45.60175088	    416.88312472	      2.22260619	     -0.24001052	      0.00000000	     -0.04559981	      0.00000000	      2.14111004	     -0.00000000
      3.51400000	    -33.47848016	    291.02426299	     -4.26836454	      0.17370598	     -0.00000000	     -0.05195362	      0.00000000	      0.93038926	     -0.00000000	     45.58975657	    416.88879931	      2.23886931	     -0.24000640	      0.00000000	     -0.04560006	      0.00000000	      2.14103469	     -0.00000000
      3.51500000	    -33.44027570	    290.82845481	     -4.34399024	      0.17372579	     -0.00000000	     -0.05190091	      0.00000000	      0.93274815	     -0.00000000	     45.57692124	    416.88971952	      2.25437629	     -0.24000233	      0.00000000	     -0.04559966	      0.00000000	      2.14073558	     -0.00000000
      3.51600000	    -33.40262903	    290.64246100	     -4.41625044	      0.17374428	     -0.00000000	     -0.05185177	      0.00000000	      0.93468179	     -0.00000000	     45.56329760	    416.88595003	      2.26914516	     -0.23999829	      0.00000000	     -0.04559861	      0.00000000	      2.14020724	     -0.00000000
      3.51700000	    -33.36555592	    290.46637924	     -4.48509432	      0.17376144	     -0.00000000	     -0.05180627	      0.00000000	      0.93619354	     -0.00000000	     45.54893548	    416.87754618	      2.28319061	     -0.23999429	      0.00000000	     -0.04559694	      0.00000000	      2.13944408	     -0.00000000
      3.51800000	    -33.32907332	    290.30030235	     -4.55047452	      0.17377723	     -0.00000000	     -0.05176443	      0.00000000	      0.93728732	     -0.00000000	     45.53388151	    416.86455379	      2.29652404	     -0.23999034	      0.00000000	     -0.04559465	      0.00000000	      2.13844045	     -0.00000000
      3.51900000	    -33.29319954	    290.14431828	     -4.61234705	      0.17379163	     -0.00000000	     -0.05172627	      0.00000000	      0.93796744	     -0.00000000	     45.51817876	    416.84700917	      2.30915370	     -0.23998643	      0.00000000	     -0.04559176	      0.00000000	      2.13719072	     -0.00000000
      3.52000000	    -33.25795433	    289.99851015	     -4.67067123	      0.17380460	     -0.00000000	     -0.05169183	      0.00000000	      0.93823862	     -0.00000000	     45.50186646	    416.82493916	      2.32108483	     -0.23998257	      0.00000000	     -0.04558828	      0.00000000	      2.13568936	     -0.00000000
